<svg width="10" height="10" viewBox="0 0 10 10" fill="#ff0000" xmlns="http://www.w3.org/2000/svg">
<path d="M0.488372 9.99982C0.391786 9.99984 0.297364 9.97121 0.21705 9.91756C0.136736 9.86391 0.0741379 9.78764 0.0371735 9.69841C0.000209163 9.60918 -0.00946059 9.51098 0.00938739 9.41625C0.0282354 9.32153 0.0747543 9.23451 0.14306 9.16623L9.1665 0.142789C9.25808 0.0512064 9.38229 -0.000244141 9.51181 -0.000244141C9.64133 -0.000244141 9.76554 0.0512064 9.85712 0.142789C9.9487 0.234372 10.0002 0.358584 10.0002 0.488101C10.0002 0.617619 9.9487 0.741831 9.85712 0.833414L0.833685 9.85685C0.78838 9.90225 0.734551 9.93825 0.675292 9.96279C0.616033 9.98732 0.55251 9.99991 0.488372 9.99982Z" />
<path d="M9.51178 9.99982C9.44764 9.99991 9.38412 9.98732 9.32486 9.96279C9.2656 9.93825 9.21178 9.90225 9.16647 9.85685L0.143033 0.833414C0.0514506 0.741831 0 0.617619 0 0.488101C0 0.358584 0.0514506 0.234372 0.143033 0.142789C0.234616 0.0512064 0.358828 -0.000244141 0.488346 -0.000244141C0.617863 -0.000244141 0.742075 0.0512064 0.833658 0.142789L9.85709 9.16623C9.9254 9.23451 9.97192 9.32153 9.99077 9.41625C10.0096 9.51098 9.99995 9.60918 9.96298 9.69841C9.92602 9.78764 9.86342 9.86391 9.7831 9.91756C9.70279 9.97121 9.60837 9.99984 9.51178 9.99982V9.99982Z" />
</svg>
